<?xml version="1.0" encoding="UTF-8" standalone="no"?>
<!-- Created with Inkscape (http://www.inkscape.org/) -->

<svg
   xmlns:dc="http://purl.org/dc/elements/1.1/"
   xmlns:cc="http://creativecommons.org/ns#"
   xmlns:rdf="http://www.w3.org/1999/02/22-rdf-syntax-ns#"
   xmlns:svg="http://www.w3.org/2000/svg"
   xmlns="http://www.w3.org/2000/svg"
   xmlns:sodipodi="http://sodipodi.sourceforge.net/DTD/sodipodi-0.dtd"
   xmlns:inkscape="http://www.inkscape.org/namespaces/inkscape"
   width="744.09448"
   height="1052.3622"
   id="svg2"
   version="1.1"
   inkscape:version="0.91 r13725"
   sodipodi:docname="PiCase3a.svg"
   inkscape:export-filename="/Users/kwasmich/Desktop/PiCaseB+.png"
   inkscape:export-xdpi="599.96027"
   inkscape:export-ydpi="599.96027">
  <defs
     id="defs4" />
  <sodipodi:namedview
     id="base"
     pagecolor="#ffffff"
     bordercolor="#666666"
     borderopacity="1.0"
     inkscape:pageopacity="0.0"
     inkscape:pageshadow="2"
     inkscape:zoom="4.9095957"
     inkscape:cx="188.5758"
     inkscape:cy="605.02904"
     inkscape:document-units="mm"
     inkscape:current-layer="layer1"
     showgrid="false"
     units="mm"
     inkscape:snap-bbox="true"
     inkscape:bbox-nodes="true"
     inkscape:snap-bbox-edge-midpoints="true"
     borderlayer="true"
     inkscape:window-width="2560"
     inkscape:window-height="1391"
     inkscape:window-x="0"
     inkscape:window-y="1"
     inkscape:window-maximized="1"
     showguides="true"
     inkscape:guide-bbox="true"
     inkscape:snap-bbox-midpoints="true"
     inkscape:bbox-paths="true">
    <sodipodi:guide
       orientation="0,1"
       position="523.52362,848.62198"
       id="guide3839" />
    <sodipodi:guide
       orientation="0,1"
       position="523.5241,189.56682"
       id="guide3841" />
    <sodipodi:guide
       orientation="1,0"
       position="64.665843,710.43298"
       id="guide3843" />
    <sodipodi:guide
       orientation="1,0"
       position="679.42913,710.43307"
       id="guide3845" />
  </sodipodi:namedview>
  <metadata
     id="metadata7">
    <rdf:RDF>
      <cc:Work
         rdf:about="">
        <dc:format>image/svg+xml</dc:format>
        <dc:type
           rdf:resource="http://purl.org/dc/dcmitype/StillImage" />
        <dc:title />
      </cc:Work>
    </rdf:RDF>
  </metadata>
  <g
     inkscape:label="Ebene 1"
     inkscape:groupmode="layer"
     id="layer1">
    <rect
       transform="scale(1,-1)"
       y="-627.16541"
       x="220.57135"
       height="85.039368"
       width="302.95276"
       id="rect2991"
       style="fill:#cccccc;stroke:none" />
    <path
       style="color:#000000;clip-rule:nonzero;display:inline;overflow:visible;visibility:visible;opacity:1;isolation:auto;mix-blend-mode:normal;color-interpolation:sRGB;color-interpolation-filters:linearRGB;solid-color:#000000;solid-opacity:1;fill:#999999;fill-opacity:1;fill-rule:nonzero;stroke:none;stroke-width:1;stroke-linecap:butt;stroke-linejoin:miter;stroke-miterlimit:4;stroke-dasharray:none;stroke-dashoffset:0;stroke-opacity:1;color-rendering:auto;image-rendering:auto;shape-rendering:auto;text-rendering:auto;enable-background:accumulate"
       d="m 528.83861,680.31495 74.40943,0 3.5433,-138.189 -81.49605,0 z"
       id="path3141"
       inkscape:connector-curvature="0"
       sodipodi:nodetypes="ccccc" />
    <rect
       y="341.92911"
       x="523.52362"
       height="200.19685"
       width="85.039368"
       id="rect2993"
       style="fill:#e6e6e6;stroke:none" />
    <path
       style="fill:#808080;stroke:none"
       d="m 608.56299,341.92911 70.86614,7.08655 0,186.02369 -70.86614,7.0866 z"
       id="rect3010"
       inkscape:connector-curvature="0"
       sodipodi:nodetypes="ccccc" />
    <path
       style="fill:#999999;stroke:none"
       d="m 64.665843,349.01575 70.866137,-7.08655 0,200.19688 -70.866137,-7.0866 z"
       id="rect3024"
       inkscape:connector-curvature="0"
       sodipodi:nodetypes="ccccc" />
    <path
       style="fill:#999999;stroke:none"
       d="m 528.83861,203.74013 74.40943,0 3.5433,138.18898 -81.49605,0 z"
       id="rect3027"
       inkscape:connector-curvature="0"
       sodipodi:nodetypes="ccccc" />
    <path
       sodipodi:nodetypes="ccccc"
       inkscape:connector-curvature="0"
       id="path3170"
       d="m 140.84646,203.74018 74.40946,0 3.5433,138.18898 -81.49608,0 z"
       style="fill:#999999;stroke:none" />
    <path
       style="fill:#999999;stroke:none"
       d="m 215.2559,680.31505 -74.40945,0 -3.5433,-138.189 81.49605,0 z"
       id="path3172"
       inkscape:connector-curvature="0"
       sodipodi:nodetypes="ccccc" />
    <rect
       y="627.16541"
       x="220.57135"
       height="200.19685"
       width="302.95276"
       id="rect3174"
       style="fill:#ececec;fill-rule:evenodd;stroke:none" />
    <path
       sodipodi:nodetypes="ccccc"
       inkscape:connector-curvature="0"
       id="path3203"
       d="m 224.11466,862.79536 295.86614,0 3.5433,-35.4331 -302.95275,0 z"
       style="fill:#999999;stroke:none" />
    <rect
       style="fill:#00ff00;stroke:none"
       id="rect3002"
       width="17.716536"
       height="17.716536"
       x="64.66584"
       y="203.7402" />
    <rect
       y="845.07886"
       x="661.71259"
       height="17.716536"
       width="17.716536"
       id="rect3005"
       style="fill:#00ff00;stroke:none" />
    <g
       id="g3147"
       transform="matrix(0,0.14851945,-0.14851945,0,426.32705,673.13845)">
      <path
         id="path3113"
         d="m 158.38,1.6562 c -3.6193,0.11232 -7.5172,1.4493 -11.938,4.9375 -10.83,-4.1763 -21.33,-5.6271 -30.72,2.8751 C 101.222,7.588 96.51,11.469 92.94,16 89.757,15.934 69.121,12.728 59.658,26.844 35.877,24.03 28.361,40.832 36.877,56.5 c -4.8569,7.519 -9.8895,14.947 1.4688,29.281 -4.018,7.9835 -1.5274,16.644 7.9375,27.125 -2.4979,11.223 2.4121,19.141 11.219,25.312 -1.6471,15.358 14.084,24.287 18.781,27.469 1.8037,8.9487 5.5629,17.393 23.531,22.062 2.9632,13.336 13.762,15.639 24.219,18.438 -34.562,20.09 -64.201,46.523 -64,111.38 l -5.0625,9.0312 c -39.63,24.1 -75.285,101.56 -19.53,164.52 3.6419,19.708 9.7496,33.864 15.188,49.531 8.1338,63.131 61.218,92.692 75.219,96.188 20.517,15.628 42.368,30.457 71.938,40.844 27.875,28.749 58.074,39.706 88.438,39.688 0.44515,-2.8e-4 0.89853,0.005 1.3438,0 30.364,0.0189 60.562,-10.938 88.438,-39.688 29.569,-10.387 51.421,-25.216 71.938,-40.844 14.001,-3.4959 67.085,-33.057 75.219,-96.188 5.4379,-15.667 11.546,-29.823 15.188,-49.531 55.754,-62.965 20.1,-140.43 -19.531,-164.53 l -5.07,-9.03 c 0.20067,-64.852 -29.438,-91.285 -64,-111.38 10.457,-2.7984 21.256,-5.1014 24.219,-18.438 17.968,-4.6698 21.728,-13.114 23.531,-22.062 4.6978,-3.1813 20.428,-12.111 18.781,-27.469 8.8067,-6.1716 13.717,-14.09 11.219,-25.312 9.4649,-10.481 11.956,-19.141 7.9375,-27.125 11.36,-14.328 6.32,-21.756 1.47,-29.275 8.51,-15.668 1,-32.47 -22.79,-29.656 -9.46,-14.116 -30.09,-10.91 -33.28,-10.844 -3.57,-4.531 -8.28,-8.412 -22.78,-6.5312 -9.39,-8.5022 -19.89,-7.0514 -30.72,-2.875 -12.86,-10.148 -21.37,-2.0133 -31.09,1.0624 -15.57,-5.0877 -19.13,1.881 -26.78,4.7188 -16.98,-3.5881 -22.14,4.224 -30.28,12.469 l -9.4688,-0.1875 c -25.611,15.093 -38.334,45.826 -42.844,61.625 -4.5121,-15.802 -17.206,-46.535 -42.812,-61.625 l -9.4688,0.1875 c -8.15,-8.245 -13.31,-16.057 -30.29,-12.469 -7.65,-2.8378 -11.2,-9.8065 -26.78,-4.7188 -6.3797,-2.0185 -12.247,-6.2144 -19.156,-6 z"
         inkscape:connector-curvature="0"
         style="fill:#000000" />
      <path
         id="path3115"
         d="m 107.39,68.056 c 67.948,35.031 107.45,63.369 129.09,87.504 -11.082,44.418 -68.896,46.445 -90.036,45.199 4.3284,-2.0147 7.9399,-4.4278 9.2205,-8.1357 -5.3045,-3.7698 -24.113,-0.39719 -37.244,-7.7742 5.0441,-1.045 7.4035,-2.063 9.7629,-5.7854 -12.406,-3.9567 -25.769,-7.3664 -33.628,-13.921 4.2413,0.0524 8.2012,0.9488 13.74,-2.8927 -11.112,-5.9882 -22.969,-10.734 -32.181,-19.887 5.7452,-0.14063 11.939,-0.0568 13.74,-2.1695 -10.17,-6.3007 -18.751,-13.308 -25.854,-20.972 8.04,0.97052 11.435,0.13478 13.379,-1.2656 -7.6878,-7.8742 -17.418,-14.523 -22.057,-24.226 5.9696,2.0575 11.431,2.8451 15.368,-0.1808 -2.6124,-5.8935 -13.805,-9.3696 -20.249,-23.142 6.2844,0.60938 12.95,1.3711 14.283,0 -2.917,-11.884 -7.922,-18.565 -12.831,-25.487 13.45,-0.2 33.828,0.052 32.905,-1.085 l -8.3165,-8.4973 c 13.138,-3.5372 26.581,0.56816 36.34,3.6159 4.3819,-3.4577 -0.0776,-7.83 -5.4238,-12.294 11.165,1.4906 21.254,4.0574 30.373,7.5934 4.8724,-4.3993 -3.1639,-8.7987 -7.051,-13.198 17.249,3.2726 24.557,7.8707 31.82,12.475 5.2694,-5.0508 0.30166,-9.3433 -3.2543,-13.74 13.006,4.817 19.705,11.036 26.758,17.175 2.3912,-3.2271 6.0749,-5.5924 1.6272,-13.379 9.2342,5.3227 16.189,11.595 21.334,18.622 5.7134,-3.6379 3.4039,-8.613 3.4351,-13.198 9.5966,7.8065 15.687,16.114 23.142,24.226 1.5017,-1.0934 2.8166,-4.8017 3.9775,-10.667 22.895,22.212 55.246,78.158 8.3165,100.34 -39.94,-32.94 -87.64,-56.883 -140.5,-74.844 z"
         inkscape:connector-curvature="0"
         style="fill:#75a928" />
      <path
         id="path3117"
         d="m 467.92,68.056 c -67.94,35.034 -107.44,63.364 -129.08,87.504 11.082,44.418 68.896,46.445 90.036,45.199 -4.3284,-2.0147 -7.9399,-4.4278 -9.2205,-8.1357 5.3045,-3.7698 24.113,-0.39719 37.244,-7.7742 -5.0441,-1.045 -7.4035,-2.063 -9.7629,-5.7854 12.406,-3.9567 25.769,-7.3664 33.628,-13.921 -4.2413,0.0524 -8.2012,0.9488 -13.74,-2.8927 11.112,-5.9882 22.969,-10.734 32.181,-19.887 -5.7452,-0.14063 -11.939,-0.0568 -13.74,-2.1695 10.17,-6.3007 18.751,-13.308 25.854,-20.972 -8.04,0.97052 -11.435,0.13478 -13.379,-1.2656 7.6878,-7.8742 17.418,-14.523 22.057,-24.226 -5.9696,2.0575 -11.431,2.8451 -15.368,-0.1808 2.6124,-5.8935 13.805,-9.3696 20.249,-23.142 -6.2844,0.60938 -12.95,1.3711 -14.283,0 2.9223,-11.889 7.9275,-18.57 12.836,-25.492 -13.45,-0.19973 -33.828,0.05235 -32.905,-1.0848 l 8.3165,-8.4973 c -13.138,-3.5372 -26.581,0.56816 -36.34,3.6159 -4.3819,-3.4577 0.0776,-7.83 5.4238,-12.294 -11.165,1.4906 -21.254,4.0574 -30.373,7.5934 -4.8724,-4.3993 3.1639,-8.7987 7.051,-13.198 -17.249,3.2726 -24.557,7.8707 -31.82,12.475 -5.2694,-5.0508 -0.30166,-9.3433 3.2543,-13.74 -13.006,4.817 -19.705,11.036 -26.758,17.175 -2.3912,-3.2271 -6.0749,-5.5924 -1.6272,-13.379 -9.2342,5.3227 -16.189,11.595 -21.334,18.622 -5.7134,-3.6379 -3.4039,-8.613 -3.4351,-13.198 -9.5966,7.8065 -15.687,16.114 -23.142,24.226 -1.5017,-1.0934 -2.8166,-4.8017 -3.9775,-10.667 -22.895,22.212 -55.246,78.158 -8.3165,100.34 39.919,-32.947 87.616,-56.888 140.48,-74.849 z"
         inkscape:connector-curvature="0"
         style="fill:#75a928" />
      <path
         id="path3119"
         transform="matrix(1.131107,0,0,1.1280497,-43.139135,-68.310983)"
         d="m 365.2,521.85 a 71.956,66.532 0 1 1 -143.91,0 71.956,66.532 0 1 1 143.91,0 z"
         inkscape:connector-curvature="0"
         style="fill:#bc1142" />
      <path
         id="path3121"
         transform="matrix(0.76741684,-1.1613112,2.171115,1.4224368,-560.88858,217.68859)"
         d="m 262.84,276.65 a 61.875,28.125 0 1 1 -123.75,0 61.875,28.125 0 1 1 123.75,0 z"
         inkscape:connector-curvature="0"
         style="fill:#bc1142" />
      <path
         id="path3123"
         transform="matrix(-0.76741684,-1.1613112,-2.171115,1.4224368,1134.8288,213.68859)"
         d="m 262.84,276.65 a 61.875,28.125 0 1 1 -123.75,0 61.875,28.125 0 1 1 123.75,0 z"
         inkscape:connector-curvature="0"
         style="fill:#bc1142" />
      <path
         id="path3125"
         d="M 72.91,342.09 C 109.32,332.33 85.202,492.72 55.577,479.56 22.99,453.35 12.494,376.59 72.91,342.09 z"
         inkscape:connector-curvature="0"
         style="fill:#bc1142" />
      <path
         id="path3127"
         d="M 493.68,340.09 C 457.266,330.3331 481.388,490.73 511.013,477.57 543.6,451.357 554.096,374.59 493.68,340.09 z"
         inkscape:connector-curvature="0"
         style="fill:#bc1142" />
      <path
         id="path3129"
         d="m 369.97,220.65 c 62.835,-10.61 115.12,26.722 113.01,94.858 -2.0669,26.121 -136.16,-90.969 -113.01,-94.858 z"
         inkscape:connector-curvature="0"
         style="fill:#bc1142" />
      <path
         id="path3131"
         d="M 196.36,218.65 C 133.52,208.04 81.24,245.38 83.35,313.51 85.417,339.63 219.51,222.54 196.36,218.65 z"
         inkscape:connector-curvature="0"
         style="fill:#bc1142" />
      <path
         id="path3133"
         d="m 286.62,202.76 c -37.503,-0.97548 -73.495,27.834 -73.582,44.544 -0.10462,20.304 29.651,41.093 73.837,41.62 45.123,0.32321 73.916,-16.64 74.061,-37.594 0.16484,-23.74 -41.039,-48.937 -74.317,-48.571 z"
         inkscape:connector-curvature="0"
         style="fill:#bc1142" />
      <path
         id="path3135"
         d="m 288.91,619.12 c 32.697,-1.4271 76.571,10.532 76.657,26.396 0.5427,15.405 -39.79,50.211 -78.826,49.538 -40.427,1.7439 -80.069,-33.116 -79.55,-45.199 -0.60506,-17.716 49.226,-31.548 81.719,-30.735 z"
         inkscape:connector-curvature="0"
         style="fill:#bc1142" />
      <path
         id="path3137"
         d="m 168.14,525.1 c 23.279,28.046 33.891,77.319 14.464,91.844 -18.379,11.088 -63.012,6.5216 -94.736,-39.052 -21.395,-38.242 -18.638,-77.157 -3.6159,-88.589 22.464,-13.684 57.173,4.799 83.889,35.797 z"
         inkscape:connector-curvature="0"
         style="fill:#bc1142" />
      <path
         id="path3139"
         d="m 405.02,516.21 c -25.187,29.502 -39.212,83.31 -20.838,100.64 17.568,13.464 64.729,11.582 99.566,-36.756 25.296,-32.465 16.82,-86.682 2.3708,-101.08 -21.464,-16.602 -52.277,4.6449 -81.099,37.188 z"
         inkscape:connector-curvature="0"
         style="fill:#bc1142" />
    </g>
    <path
       style="fill:#999999;fill-opacity:1;stroke:none"
       d="m 224.11417,203.7402 295.86614,0 3.54331,53.1496 -302.95276,0 z"
       id="rect3019"
       inkscape:connector-curvature="0"
       sodipodi:nodetypes="ccccc" />
    <rect
       style="fill:#ececec;fill-rule:evenodd;stroke:none"
       id="rect2985"
       width="302.95276"
       height="200.19685"
       x="-523.52411"
       y="-542.12604"
       transform="scale(-1,-1)" />
    <rect
       style="fill:#cccccc;stroke:none"
       id="rect2987"
       width="302.95276"
       height="85.039368"
       x="220.57086"
       y="-341.92917"
       transform="scale(1,-1)" />
    <path
       inkscape:connector-curvature="0"
       style="fill:#000000;stroke:none"
       d="m 422.53988,320.6694 a 12.401575,12.401575 0 0 1 -12.40157,12.40158 12.401575,12.401575 0 0 1 -12.40158,-12.40158 12.401575,12.401575 0 0 1 12.40158,-12.40157 12.401575,12.401575 0 0 1 12.40157,12.40157 z"
       id="path2995-9" />
    <rect
       style="fill:#000000;stroke:none"
       id="rect2997"
       width="28.346457"
       height="10.629921"
       x="243.63275"
       y="-335.14877"
       transform="scale(1,-1)" />
    <path
       style="fill:#000000;stroke:none"
       d="m 307.38241,310.03949 0,14.1733 7.09286,7.0866 38.96388,0 7.09286,-7.0866 0,-14.1733 z"
       id="rect2999"
       inkscape:connector-curvature="0"
       sodipodi:nodetypes="ccccccc" />
    <rect
       style="fill:#000000;stroke:none"
       id="rect3004"
       width="49.6063"
       height="58.464565"
       x="535.92566"
       y="349.01584" />
    <rect
       style="fill:#000000;stroke:none"
       id="rect3006-0"
       width="53.149605"
       height="49.6063"
       x="539.46899"
       y="483.6615" />
    <rect
       style="fill:#000000;stroke:none"
       id="rect3006-0-1"
       width="53.149605"
       height="49.6063"
       x="539.46899"
       y="419.88199" />
    <rect
       style="fill:#e6e6e6;stroke:none"
       id="rect2989"
       width="85.039368"
       height="200.19685"
       x="135.53198"
       y="341.9292" />
    <rect
       style="fill:#000000;fill-opacity:1;stroke:none"
       id="rect3848"
       width="5.3149605"
       height="40.748032"
       x="215.25644"
       y="421.65366" />
    <path
       style="color:#000000;font-style:normal;font-variant:normal;font-weight:normal;font-stretch:normal;font-size:medium;line-height:normal;font-family:sans-serif;text-indent:0;text-align:start;text-decoration:none;text-decoration-line:none;text-decoration-style:solid;text-decoration-color:#000000;letter-spacing:normal;word-spacing:normal;text-transform:none;direction:ltr;block-progression:tb;writing-mode:lr-tb;baseline-shift:baseline;text-anchor:start;white-space:normal;clip-rule:nonzero;display:inline;overflow:visible;visibility:visible;opacity:1;isolation:auto;mix-blend-mode:normal;color-interpolation:sRGB;color-interpolation-filters:linearRGB;solid-color:#000000;solid-opacity:1;fill:#000000;fill-opacity:1;fill-rule:nonzero;stroke:none;stroke-width:3.54330707;stroke-linecap:butt;stroke-linejoin:miter;stroke-miterlimit:4;stroke-dasharray:none;stroke-dashoffset:0;stroke-opacity:1;color-rendering:auto;image-rendering:auto;shape-rendering:auto;text-rendering:auto;enable-background:accumulate"
       d="m 544.7832,214.37109 c -7.80667,0 -14.17383,6.3652 -14.17382,14.17188 0,7.80667 6.36715,14.17383 14.17382,14.17383 7.80667,-1e-5 14.17383,-6.36716 14.17383,-14.17383 0,-7.80667 -6.36715,-14.17187 -14.17383,-14.17188 z"
       id="path4639" />
    <path
       style="color:#000000;font-style:normal;font-variant:normal;font-weight:normal;font-stretch:normal;font-size:medium;line-height:normal;font-family:sans-serif;text-indent:0;text-align:start;text-decoration:none;text-decoration-line:none;text-decoration-style:solid;text-decoration-color:#000000;letter-spacing:normal;word-spacing:normal;text-transform:none;direction:ltr;block-progression:tb;writing-mode:lr-tb;baseline-shift:baseline;text-anchor:start;white-space:normal;clip-rule:nonzero;display:inline;overflow:visible;visibility:visible;opacity:1;isolation:auto;mix-blend-mode:normal;color-interpolation:sRGB;color-interpolation-filters:linearRGB;solid-color:#000000;solid-opacity:1;fill:#000000;fill-opacity:1;fill-rule:nonzero;stroke:none;stroke-width:3.54330707;stroke-linecap:butt;stroke-linejoin:miter;stroke-miterlimit:4;stroke-dasharray:none;stroke-dashoffset:0;stroke-opacity:1;color-rendering:auto;image-rendering:auto;shape-rendering:auto;text-rendering:auto;enable-background:accumulate"
       d="m 215.5625,320.63867 -1.77148,0 -12.40235,0 0,-31.88867 14.17383,0 0,31.88867 z"
       id="path4643" />
    <path
       style="fill:#000000;stroke:none"
       d="M 186.91016 203.74023 L 186.91016 256.88867 L 188.68164 256.88867 L 203.58984 256.88867 L 211.71289 248.75781 L 211.71289 208.32812 L 207.12891 203.74023 L 186.91016 203.74023 z "
       id="path4645" />
    <rect
       transform="scale(-1,-1)"
       y="-389.76379"
       x="-210.8273"
       height="24.80315"
       width="7.0866141"
       id="rect3381"
       style="fill:#000000;stroke:none" />
  </g>
</svg>
